<?xml version="1.0" standalone="no"?>
<!DOCTYPE svg PUBLIC "-//W3C//DTD SVG 20010904//EN"
 "http://www.w3.org/TR/2001/REC-SVG-20010904/DTD/svg10.dtd">
<svg version="1.0" xmlns="http://www.w3.org/2000/svg"
 width="160.000000pt" height="193.000000pt" viewBox="0 0 160.000000 193.000000"
 preserveAspectRatio="xMidYMid meet">

<g transform="translate(0.000000,193.000000) scale(0.100000,-0.100000)"
fill="#000000" stroke="none">
<path d="M685 1806 c-247 -48 -443 -228 -511 -471 -22 -79 -32 -520 -15 -650
35 -258 202 -462 445 -542 69 -22 99 -26 196 -26 97 0 127 4 196 26 129 43
249 130 331 242 l22 30 1 -132 c0 -119 2 -135 20 -153 26 -26 45 -25 64 2 14
20 16 84 16 505 0 470 -1 484 -20 503 -24 24 -30 24 -56 6 -18 -13 -19 -32
-24 -268 -5 -246 -6 -255 -32 -317 -27 -65 -88 -163 -99 -158 -12 5 -469 548
-469 557 0 6 107 136 237 289 l237 279 24 -31 c32 -43 67 -113 82 -165 16 -52
32 -66 65 -58 39 10 40 43 6 132 -110 283 -421 457 -716 400z m314 -118 c35
-15 85 -42 112 -60 55 -38 64 -17 -71 -175 -47 -55 -150 -177 -230 -271 l-145
-172 -207 0 -208 0 -1 83 c-3 167 11 241 64 341 38 72 133 171 202 212 102 59
167 75 300 71 103 -2 129 -7 184 -29z m-96 -1059 c131 -154 240 -286 243 -293
6 -17 -106 -82 -186 -107 -90 -29 -230 -29 -320 0 -140 44 -261 143 -327 267
-48 90 -63 161 -63 296 l0 118 208 0 207 0 238 -281z"/>
</g>
</svg>
